<svg width="11" height="12" viewBox="0 0 11 12" fill="none" xmlns="http://www.w3.org/2000/svg">
<path d="M2.864 0.266054C3.536 0.266054 4.09067 0.484721 4.528 0.922054C4.976 1.34872 5.2 1.91939 5.2 2.63405C5.2 3.34872 4.98133 3.91939 4.544 4.34605C4.10667 4.77272 3.54667 4.98605 2.864 4.98605C2.18133 4.98605 1.62133 4.77272 1.184 4.34605C0.746667 3.91939 0.528 3.34872 0.528 2.63405C0.528 1.91939 0.746667 1.34872 1.184 0.922054C1.62133 0.484721 2.18133 0.266054 2.864 0.266054ZM9.232 0.410054L2.752 11.7061H1.312L7.792 0.410054H9.232ZM1.552 2.63405C1.552 3.06072 1.66933 3.40739 1.904 3.67405C2.14933 3.94072 2.464 4.07405 2.848 4.07405C3.24267 4.07405 3.56267 3.94072 3.808 3.67405C4.05333 3.40739 4.176 3.06072 4.176 2.63405C4.176 2.20739 4.05333 1.86072 3.808 1.59405C3.56267 1.32739 3.24267 1.19405 2.848 1.19405C2.464 1.19405 2.14933 1.32739 1.904 1.59405C1.66933 1.86072 1.552 2.20739 1.552 2.63405ZM7.696 7.13005C8.37867 7.13005 8.93333 7.34339 9.36 7.77005C9.79733 8.19672 10.016 8.76739 10.016 9.48205C10.016 10.1967 9.79733 10.7727 9.36 11.2101C8.93333 11.6367 8.37867 11.8501 7.696 11.8501C7.024 11.8501 6.464 11.6367 6.016 11.2101C5.57867 10.7727 5.36 10.1967 5.36 9.48205C5.36 8.76739 5.57867 8.19672 6.016 7.77005C6.45333 7.34339 7.01333 7.13005 7.696 7.13005ZM6.384 9.48205C6.384 9.90872 6.50133 10.2554 6.736 10.5221C6.98133 10.7887 7.30133 10.9221 7.696 10.9221C8.08 10.9221 8.38933 10.7887 8.624 10.5221C8.86933 10.2554 8.992 9.90872 8.992 9.48205C8.992 9.05539 8.86933 8.70872 8.624 8.44205C8.38933 8.17539 8.08 8.04205 7.696 8.04205C7.30133 8.04205 6.98133 8.17539 6.736 8.44205C6.50133 8.70872 6.384 9.05539 6.384 9.48205Z" fill="#363D45"/>
</svg>
